<?xml version="1.0"?>
<svg xmlns="http://www.w3.org/2000/svg" viewBox="0 0 24 24">
    <path d="M 6.59375 2.03125 C 5.2746875 2.1077656 3.731 2.54725 2 3.5 C 2 3.5 3.011 6.821 4.75 8.75 C 6.538 10.733 9.52975 9.8365 9.59375 9.1875 C 8.35175 6.5905 5.5 5.125 5.5 5.125 C 6.1147395 5.3169281 6.9888723 5.6284376 8.03125 6.21875 C 9.6314916 7.1249882 11 8.38247 11 10.1875 L 11 11.4375 L 11 13 L 13 13 L 13 11.4375 C 13 10.486389 13.324033 9.7977962 13.875 9.1875 C 14.425967 8.5772038 15.234965 8.0576774 16.0625 7.6875 C 17.05943 7.2415481 17.917582 7.033654 18.5625 6.90625 C 17.890364 7.1178513 15.553599 7.9606228 14.59375 9.96875 C 15.13275 10.85175 17.9535 11.75375 19.5625 9.96875 C 21.1275 8.23175 22 5.34375 22 5.34375 C 16.742661 2.4498097 13.482812 4.811258 13.0625 7.21875 C 13.060536 7.23 13.033089 7.238749 13.03125 7.25 C 12.82713 7.4248417 12.622774 7.6101455 12.4375 7.8125 C 12.282773 7.5011677 12.108736 7.2134811 11.90625 6.9375 C 12.463532 4.7341021 10.480528 1.8057874 6.59375 2.03125 z M 6 14 L 6 16 L 18 16 L 18 14 L 6 14 z M 7 17 L 8.25 22 L 15.75 22 L 17 17 L 7 17 z"/>
</svg>
