<?xml version="1.0" encoding="UTF-8" standalone="no"?>
<svg
   viewBox="0 0 4000 4000"
   height="4000"
   width="4000"
   xml:space="preserve"
   id="svg2"
   version="1.1"
   sodipodi:docname="vegetable-6600286.svg"
   inkscape:version="1.2.1 (9c6d41e410, 2022-07-14)"
   xmlns:inkscape="http://www.inkscape.org/namespaces/inkscape"
   xmlns:sodipodi="http://sodipodi.sourceforge.net/DTD/sodipodi-0.dtd"
   xmlns="http://www.w3.org/2000/svg"
   xmlns:svg="http://www.w3.org/2000/svg"
   xmlns:rdf="http://www.w3.org/1999/02/22-rdf-syntax-ns#"
   xmlns:cc="http://creativecommons.org/ns#"
   xmlns:dc="http://purl.org/dc/elements/1.1/"><sodipodi:namedview
     id="namedview282"
     pagecolor="#505050"
     bordercolor="#eeeeee"
     borderopacity="1"
     inkscape:showpageshadow="0"
     inkscape:pageopacity="0"
     inkscape:pagecheckerboard="0"
     inkscape:deskcolor="#505050"
     showgrid="false"
     inkscape:zoom="0.1235"
     inkscape:cx="858.2996"
     inkscape:cy="1441.2955"
     inkscape:window-width="1366"
     inkscape:window-height="697"
     inkscape:window-x="-8"
     inkscape:window-y="-8"
     inkscape:window-maximized="1"
     inkscape:current-layer="svg2" /><metadata
     id="metadata8"><rdf:RDF><cc:Work
         rdf:about=""><dc:format>image/svg+xml</dc:format><dc:type
           rdf:resource="http://purl.org/dc/dcmitype/StillImage" /></cc:Work></rdf:RDF></metadata><defs
     id="defs6"><clipPath
       id="clipPath20"
       clipPathUnits="userSpaceOnUse"><path
         id="path18"
         d="M 0,3000 H 3000 V 0 H 0 Z" /></clipPath><clipPath
       id="clipPath32"
       clipPathUnits="userSpaceOnUse"><path
         id="path30"
         d="m 1256.68,1626.9 h 497.39 v -238 h -497.39 z" /></clipPath></defs><g
     transform="matrix(1.3333333,0,0,-1.3333333,0,4000)"
     id="g10"><path
       id="path12"
       style="fill:#ffffff;fill-opacity:1;fill-rule:nonzero;stroke:none"
       d="m 1506.073,1184.2105 60.7286,30.3644 -54.6559,-42.5102 24.2916,-109.3117 z"
       sodipodi:nodetypes="ccccc" /><g
       id="g14"><g
         clip-path="url(#clipPath20)"
         id="g16"><g
           transform="translate(1763.5342,1208.8545)"
           id="g22"
           style="display:inline"><path
             id="path24"
             style="fill:#8a1546;fill-opacity:1;fill-rule:nonzero;stroke:none"
             d="m 0,0 h -0.002 c 10.886,33.113 16.824,68.832 16.824,106.077 0,172.292 -126.996,311.965 -283.653,311.965 -156.659,0 -283.655,-139.673 -283.655,-311.965 0,-91.439 35.769,-173.687 92.757,-230.748 v 0 c 0,0 95.396,-99.66 172.367,-171.566 88.285,-82.473 82.674,-249.079 71.27,-289.03 -11.402,-39.954 34.21,-183.703 51.315,-183.703 17.106,0 -17.105,46.823 -22.807,140.901 -5.702,94.076 17.105,148.002 -8.553,273.685 -25.655,125.683 79.477,172.429 125.786,237.592 30.139,32.471 53.714,72.275 68.349,116.79 z" /></g><g
           id="g26"><g
             id="g28" /><g
             id="g40"><g
               style="opacity:0.30000299"
               id="g38"
               clip-path="url(#clipPath32)"><g
                 id="g36"
                 transform="translate(1496.7031,1626.8965)"><path
                   id="path34"
                   style="fill:#a91d3d;fill-opacity:1;fill-rule:nonzero;stroke:none"
                   d="m 0,0 c -101.066,0 -189.784,-58.136 -240.024,-145.656 66.842,-56.624 164.63,-92.338 273.577,-92.338 84.355,0 162.019,21.414 223.81,57.365 C 212.284,-73.96 113.996,0 0,0" /></g></g></g></g><g
           transform="translate(1560.0488,1594.1162)"
           id="g42"><path
             id="path44"
             style="fill:#600b32;fill-opacity:1;fill-rule:nonzero;stroke:none"
             d="m 0,0 c -0.911,-11.787 -30.013,-19.144 -65,-16.435 -34.988,2.71 -62.611,14.454 -61.693,26.248 0.911,11.78 30.011,19.147 64.996,16.429 C -26.708,23.539 0.913,11.789 0,0" /></g><g
           transform="translate(1924.7803,2161.001)"
           id="g46"><path
             id="path48"
             style="fill:#709914;fill-opacity:1;fill-rule:nonzero;stroke:none"
             d="m 0,0 c -6.204,-33.744 -28.65,-61.919 -58.901,-75.908 -27.307,-12.628 -64.786,-37.455 -56.478,-76.35 12.77,-59.957 -77.022,-105.145 -77.022,-105.145 0,0 -53.602,-27.591 -61.614,-90.245 -3.035,-23.552 -11.171,-46.216 -25.808,-64.435 -17.281,-21.538 -43.494,-42.354 -78.819,-38.114 -1.832,0.261 -3.705,0.508 -5.588,0.885 -9.333,1.755 -19.245,5.246 -29.726,10.909 0,0 -57.908,68.15 6.975,158.555 0,0 49.031,45.574 38.688,117.776 0,0 -9.83,101.202 51.332,111.718 0,0 28.315,15.939 26.43,55.868 -0.87,18.556 0.303,37.087 5.041,54.962 14.47,54.51 56.117,140.878 170.236,83.071 0,0 13.304,-6.192 29.994,-18.11 4.262,-3.026 8.718,-6.405 13.252,-10.144 C -22.548,91.051 9.441,51.807 0,0" /></g><g
           transform="translate(1830.5791,2262.4326)"
           id="g50"><path
             id="path52"
             style="fill:#31471a;fill-opacity:1;fill-rule:nonzero;stroke:none"
             d="m 0,0 c 0,0 -1.269,-2.664 -3.651,-7.659 -2.42,-4.971 -5.871,-12.318 -10.432,-21.572 -4.537,-9.268 -9.982,-20.555 -16.398,-33.407 -6.37,-12.877 -13.529,-27.417 -21.453,-43.216 -15.814,-31.613 -34.425,-68.396 -54.471,-107.737 -20.072,-39.312 -41.482,-81.246 -62.889,-123.18 -10.676,-20.969 -21.354,-41.938 -31.863,-62.581 -5.222,-10.334 -10.401,-20.586 -15.519,-30.716 -5.089,-10.143 -10.114,-20.162 -15.056,-30.017 -9.84,-19.73 -19.296,-38.827 -28.116,-57.003 -8.829,-18.169 -17.044,-35.406 -24.423,-51.404 -3.718,-7.988 -7.173,-15.689 -10.436,-23.02 -1.642,-3.663 -3.234,-7.234 -4.724,-10.728 -1.514,-3.486 -2.97,-6.878 -4.325,-10.184 -5.454,-13.215 -9.977,-24.832 -13.177,-34.569 -3.189,-9.736 -5.197,-17.546 -6.006,-22.98 -0.167,-1.364 -0.314,-2.567 -0.442,-3.606 -0.149,-1.043 -0.074,-1.922 -0.12,-2.635 -0.029,-1.43 -0.045,-2.168 -0.045,-2.168 0,0 -0.078,0.735 -0.234,2.155 -0.049,0.712 -0.237,1.605 -0.223,2.663 0.002,1.062 0.004,2.293 0.007,3.686 0.225,5.562 1.201,13.727 3.52,23.858 2.27,10.142 5.594,22.32 10.092,36.041 1.093,3.444 2.281,6.973 3.52,10.601 1.213,3.64 2.522,7.357 3.873,11.173 1.315,3.83 2.783,7.708 4.259,11.691 1.46,3.991 3.024,8.04 4.604,12.187 6.38,16.558 13.646,34.345 21.638,53.015 8.005,18.663 16.711,38.22 25.998,58.316 4.616,10.059 9.423,20.231 14.306,30.518 2.453,5.139 4.92,10.308 7.399,15.504 2.519,5.175 5.053,10.376 7.595,15.598 10.16,20.892 20.777,41.963 31.46,62.997 10.77,20.987 21.617,41.934 32.522,62.43 5.413,10.269 10.865,20.413 16.278,30.42 5.4,10.013 10.753,19.895 16.096,29.573 10.629,19.387 21.065,38.036 31.052,55.671 9.995,17.629 19.566,34.229 28.486,49.504 8.911,15.279 17.245,29.192 24.649,41.514 7.353,12.348 13.959,23.005 19.368,31.798 5.384,8.806 9.776,15.633 12.708,20.322 C -1.591,-2.486 0,0 0,0" /></g><g
           transform="translate(1735.5225,2436.5166)"
           id="g54"><path
             id="path56"
             style="fill:#7da731;fill-opacity:1;fill-rule:nonzero;stroke:none"
             d="m 0,0 c 8.557,-42.163 -4.389,-85.441 -33.044,-115.861 -25.87,-27.46 -57.867,-73.872 -30.017,-115.243 42.892,-63.792 -40.458,-158.352 -40.458,-158.352 0,0 -49.466,-57.164 -29.496,-133.812 7.48,-28.824 8.612,-58.998 0.097,-87.04 -10.038,-33.139 -30.804,-69.616 -73.888,-81.199 -2.254,-0.552 -4.548,-1.139 -6.917,-1.583 -11.678,-2.32 -24.843,-2.893 -39.688,-1.206 0,0 -99.241,52.223 -66.018,187.749 0,0 35.742,75.95 -10.047,155.126 0,0 -58.756,113.156 7.493,153.989 0,0 25.492,31.783 4.63,77.36 -9.688,21.185 -16.986,43.296 -19.832,66.308 -8.65,70.192 -0.574,190.157 159.236,176.252 0,0 18.375,-0.985 43.37,-7.05 6.371,-1.527 13.135,-3.375 20.159,-5.605 C -68.808,95.399 -13.238,64.694 0,0" /></g><g
           transform="translate(1578.4902,2510.4932)"
           id="g58"><path
             id="path60"
             style="fill:#31471a;fill-opacity:1;fill-rule:nonzero;stroke:none"
             d="m 0,0 c 0,0 -0.23,-3.693 -0.667,-10.618 -0.494,-6.916 -1.071,-17.077 -2.051,-29.978 -0.947,-12.904 -2.006,-28.585 -3.462,-46.537 -1.39,-17.961 -2.923,-38.227 -4.756,-60.313 -3.619,-44.178 -8.076,-95.679 -13.007,-150.825 -4.972,-55.126 -10.278,-113.929 -15.58,-172.73 -2.619,-29.39 -5.238,-58.781 -7.815,-87.712 -1.244,-14.466 -2.476,-28.817 -3.695,-42.997 -1.177,-14.18 -2.34,-28.186 -3.485,-41.966 -2.224,-27.556 -4.297,-54.199 -6.062,-79.469 -1.776,-25.269 -3.275,-49.166 -4.381,-71.23 -0.594,-11.033 -1.013,-21.607 -1.382,-31.664 -0.196,-5.029 -0.381,-9.93 -0.48,-14.691 -0.133,-4.765 -0.241,-9.392 -0.273,-13.872 -0.164,-17.926 0.002,-33.558 0.832,-46.383 0.843,-12.82 2.157,-22.846 3.756,-29.547 0.445,-1.664 0.837,-3.133 1.173,-4.403 0.314,-1.284 0.812,-2.272 1.095,-3.121 0.631,-1.676 0.961,-2.543 0.961,-2.543 0,0 -0.438,0.817 -1.282,2.397 -0.391,0.806 -1.027,1.756 -1.504,2.994 -0.497,1.237 -1.069,2.67 -1.718,4.291 -2.334,6.579 -5.016,16.534 -7.056,29.407 -2.1,12.862 -3.929,28.585 -5.111,46.655 -0.336,4.517 -0.607,9.178 -0.859,13.978 -0.291,4.803 -0.505,9.741 -0.719,14.812 -0.259,5.072 -0.365,10.27 -0.512,15.595 -0.165,5.325 -0.238,10.77 -0.338,16.332 -0.32,22.249 -0.183,46.341 0.388,71.801 0.589,25.459 1.576,52.286 2.984,80.009 0.669,13.863 1.506,27.946 2.377,42.2 0.451,7.124 0.906,14.293 1.361,21.498 0.512,7.198 1.026,14.435 1.542,21.7 2.056,29.059 4.557,58.538 7.152,88.008 2.72,29.455 5.546,58.9 8.653,87.846 1.497,14.479 3.097,28.831 4.718,43.006 1.601,14.175 3.209,28.175 4.902,41.934 3.299,27.527 6.725,54.106 10.097,79.294 3.39,25.186 6.766,48.976 10.004,70.918 3.222,21.945 6.414,42.031 9.266,59.829 2.785,17.807 5.487,33.295 7.67,46.053 2.146,12.763 4.066,22.761 5.285,29.588 C -0.689,-3.636 0,0 0,0" /></g><g
           transform="translate(1075.2197,2146.5488)"
           id="g62"><path
             id="path64"
             style="fill:#688429;fill-opacity:1;fill-rule:nonzero;stroke:none"
             d="m 0,0 c 6.205,-33.744 28.651,-61.92 58.901,-75.908 27.307,-12.628 64.786,-37.455 56.479,-76.351 -12.771,-59.956 77.02,-105.144 77.02,-105.144 0,0 53.602,-27.591 61.615,-90.245 3.036,-23.552 11.172,-46.217 25.809,-64.435 17.281,-21.538 43.492,-42.354 78.818,-38.115 1.832,0.262 3.704,0.509 5.588,0.886 9.332,1.755 19.246,5.246 29.727,10.909 0,0 57.908,68.15 -6.975,158.555 0,0 -49.031,45.574 -38.69,117.776 0,0 9.831,101.202 -51.332,111.718 0,0 -28.314,15.938 -26.429,55.868 0.87,18.556 -0.304,37.087 -5.042,54.962 -14.469,54.51 -56.115,140.878 -170.235,83.071 0,0 -13.303,-6.193 -29.995,-18.11 -4.262,-3.026 -8.716,-6.405 -13.252,-10.144 C 22.548,91.051 -9.441,51.807 0,0" /></g><g
           transform="translate(1169.4204,2247.9805)"
           id="g66"><path
             id="path68"
             style="fill:#31471a;fill-opacity:1;fill-rule:nonzero;stroke:none"
             d="m 0,0 c 0,0 1.27,-2.664 3.651,-7.659 2.422,-4.971 5.871,-12.318 10.432,-21.572 4.537,-9.268 9.982,-20.555 16.399,-33.407 6.369,-12.877 13.529,-27.418 21.452,-43.216 15.814,-31.613 34.426,-68.397 54.471,-107.737 20.072,-39.312 41.482,-81.246 62.889,-123.18 10.677,-20.969 21.354,-41.939 31.863,-62.581 5.221,-10.334 10.402,-20.586 15.52,-30.716 5.088,-10.143 10.113,-20.162 15.055,-30.018 9.841,-19.73 19.298,-38.826 28.115,-57.002 8.83,-18.169 17.045,-35.406 24.424,-51.404 3.718,-7.988 7.173,-15.689 10.437,-23.02 1.64,-3.663 3.234,-7.235 4.723,-10.728 1.515,-3.486 2.971,-6.878 4.326,-10.184 5.452,-13.216 9.977,-24.832 13.177,-34.569 3.188,-9.736 5.197,-17.546 6.006,-22.98 0.166,-1.364 0.313,-2.567 0.441,-3.606 0.15,-1.043 0.075,-1.922 0.119,-2.635 0.029,-1.43 0.045,-2.168 0.045,-2.168 0,0 0.08,0.734 0.235,2.154 0.049,0.713 0.237,1.606 0.222,2.664 -0.001,1.062 -0.002,2.293 -0.005,3.685 -0.226,5.563 -1.202,13.728 -3.521,23.859 -2.269,10.142 -5.594,22.32 -10.091,36.041 -1.094,3.444 -2.281,6.973 -3.52,10.601 -1.214,3.64 -2.523,7.357 -3.872,11.173 -1.318,3.83 -2.785,7.708 -4.26,11.691 -1.461,3.991 -3.025,8.04 -4.605,12.187 -6.379,16.558 -13.645,34.345 -21.636,53.015 -8.007,18.663 -16.713,38.22 -25.999,58.316 -4.617,10.059 -9.424,20.23 -14.307,30.518 -2.453,5.138 -4.92,10.308 -7.399,15.504 -2.52,5.175 -5.052,10.376 -7.594,15.598 -10.161,20.892 -20.778,41.963 -31.459,62.997 -10.772,20.987 -21.617,41.934 -32.525,62.43 -5.412,10.269 -10.863,20.413 -16.276,30.42 -5.401,10.012 -10.754,19.894 -16.098,29.573 -10.627,19.387 -21.064,38.036 -31.049,55.671 -9.996,17.629 -19.568,34.229 -28.488,49.504 C 52.387,-85.502 44.053,-71.589 36.65,-59.267 29.295,-46.919 22.69,-36.262 17.282,-27.47 11.898,-18.664 7.506,-11.836 4.573,-7.147 1.591,-2.486 0,0 0,0" /></g><g
           transform="translate(1585.8604,1344.0117)"
           id="g70"><path
             id="path72"
             style="fill:#600b32;fill-opacity:1;fill-rule:nonzero;stroke:none"
             d="m 0,0 c -51.699,0 -94.138,4.21 -94.612,4.257 -2.272,0.227 -3.928,2.256 -3.699,4.527 0.229,2.273 2.264,3.936 4.527,3.698 2.104,-0.211 211.151,-20.605 268.699,30.913 1.702,1.521 4.314,1.376 5.837,-0.325 1.522,-1.702 1.38,-4.314 -0.322,-5.838 C 154.962,14.437 100.813,1.979 19.483,0.207 12.891,0.062 6.374,0 0,0" /></g><g
           transform="translate(1577.0439,1288.1143)"
           id="g74"><path
             id="path76"
             style="fill:#600b32;fill-opacity:1;fill-rule:nonzero;stroke:none"
             d="m 0,0 c -4.834,0 -9.759,0.045 -14.799,0.136 -60.081,1.074 -113.313,8.495 -113.844,8.571 -2.26,0.318 -3.835,2.409 -3.516,4.67 0.319,2.261 2.409,3.833 4.671,3.516 2.093,-0.295 210.167,-28.959 269.714,20.231 1.757,1.456 4.366,1.208 5.819,-0.555 1.453,-1.757 1.207,-4.365 -0.554,-5.818 C 122.772,10.33 73.185,0 0,0" /></g><g
           transform="translate(1619.2041,1233.4492)"
           id="g78"><path
             id="path80"
             style="fill:#600b32;fill-opacity:1;fill-rule:nonzero;stroke:none"
             d="m 0,0 c -4.832,0 -9.761,0.045 -14.8,0.135 -60.082,1.075 -113.315,8.497 -113.846,8.571 -2.26,0.319 -3.834,2.409 -3.516,4.672 0.319,2.258 2.402,3.831 4.671,3.516 2.095,-0.295 210.167,-28.962 269.715,20.229 1.757,1.455 4.367,1.207 5.819,-0.553 1.454,-1.759 1.207,-4.365 -0.554,-5.821 C 122.771,10.331 73.186,0 0,0" /></g><g
           transform="translate(1395.9883,1449.8281)"
           id="g82"><path
             id="path84"
             style="fill:#600b32;fill-opacity:1;fill-rule:nonzero;stroke:none"
             d="m 0,0 c -28.118,0 -49.53,9.61 -63.642,18.877 -19.701,12.938 -29.581,27.714 -29.992,28.336 -1.258,1.906 -0.732,4.47 1.173,5.727 1.905,1.257 4.467,0.733 5.726,-1.169 0.151,-0.229 9.591,-14.217 27.922,-26.173 C -34.315,9.619 -6.33,4.62 24.358,10.744 26.598,11.189 28.774,9.738 29.222,7.498 29.668,5.261 28.216,3.083 25.977,2.637 16.771,0.801 8.105,0 0,0" /></g><g
           transform="translate(1352.6333,1112.127)"
           id="g86"><path
             id="path88"
             style="fill:#600b32;fill-opacity:1;fill-rule:nonzero;stroke:none"
             d="m 0,0 c -15.841,0 -29.367,3.285 -39.784,7.142 -22.105,8.178 -35.053,20.355 -35.593,20.871 -1.653,1.573 -1.718,4.189 -0.144,5.843 1.573,1.653 4.187,1.718 5.841,0.147 0.176,-0.164 12.523,-11.691 33.092,-19.229 27.463,-10.064 55.851,-8.644 84.382,4.22 2.08,0.935 4.528,0.009 5.467,-2.071 0.939,-2.08 0.011,-4.528 -2.07,-5.468 C 32.481,3.02 15.177,0 0,0" /></g><g
           transform="translate(1700.5332,1129.6719)"
           id="g90"><path
             id="path92"
             style="fill:#600b32;fill-opacity:1;fill-rule:nonzero;stroke:none"
             d="m 0,0 c 0,0 0.634,-0.451 1.761,-1.373 1.116,-0.928 2.77,-2.289 4.729,-4.183 3.935,-3.757 9.356,-9.459 14.426,-17.538 2.518,-4.041 4.87,-8.726 6.623,-14.058 0.219,-0.667 0.399,-1.353 0.599,-2.037 0.195,-0.688 0.388,-1.379 0.524,-2.096 0.151,-0.713 0.304,-1.429 0.455,-2.151 0.108,-0.734 0.216,-1.471 0.324,-2.214 l 0.156,-1.121 0.079,-1.138 c 0.045,-0.764 0.112,-1.53 0.124,-2.303 -0.03,-1.553 -0.005,-3.126 -0.217,-4.708 -0.107,-1.592 -0.446,-3.169 -0.759,-4.765 -0.18,-0.791 -0.438,-1.566 -0.659,-2.355 l -0.348,-1.183 c -0.133,-0.387 -0.294,-0.766 -0.44,-1.151 -0.305,-0.767 -0.607,-1.535 -0.912,-2.306 -0.37,-0.739 -0.742,-1.48 -1.115,-2.222 -0.662,-1.334 -1.392,-2.668 -2.089,-4.012 -0.579,-1.293 -1.157,-2.487 -1.705,-3.835 -0.519,-1.366 -1.112,-2.691 -1.589,-4.098 -0.499,-1.39 -1.017,-2.774 -1.451,-4.205 -0.461,-1.418 -0.917,-2.842 -1.317,-4.291 -1.716,-5.754 -3.113,-11.649 -4.401,-17.488 -0.632,-2.921 -1.217,-5.838 -1.797,-8.718 -0.563,-2.887 -1.076,-5.749 -1.597,-8.566 C 7.406,-135.396 5.78,-146.012 4.437,-155.133 1.775,-173.443 0,-185.652 0,-185.652 c 0,0 -0.051,0.775 -0.147,2.224 -0.07,1.449 -0.208,3.577 -0.268,6.286 -0.075,2.706 -0.159,5.997 -0.151,9.77 -0.002,3.772 0.072,8.029 0.23,12.673 0.166,4.642 0.424,9.67 0.828,14.984 0.41,5.315 0.94,10.914 1.663,16.697 0.189,1.445 0.377,2.904 0.57,4.371 0.217,1.466 0.437,2.943 0.66,4.428 0.459,2.97 0.962,5.975 1.555,8.992 1.142,6.042 2.571,12.152 4.332,18.221 0.432,1.517 0.925,3.025 1.43,4.53 0.474,1.51 1.041,3.002 1.59,4.494 0.518,1.501 1.196,2.965 1.807,4.435 0.636,1.47 1.416,3.004 2.125,4.453 0.734,1.327 1.467,2.651 2.197,3.969 0.328,0.586 0.654,1.172 0.979,1.758 0.268,0.608 0.535,1.217 0.801,1.823 0.131,0.305 0.277,0.602 0.396,0.911 l 0.311,0.935 c 0.199,0.627 0.441,1.24 0.61,1.871 0.288,1.275 0.668,2.526 0.813,3.819 0.254,1.274 0.291,2.572 0.396,3.852 0.03,0.644 -0.004,1.289 0.005,1.929 l 0.006,0.96 -0.066,0.96 c -0.093,2.556 -0.606,5.055 -1.104,7.492 -1.168,4.852 -2.891,9.381 -4.834,13.427 -1.937,4.054 -4.032,7.66 -6.013,10.793 C 8.73,-11.467 6.875,-8.79 5.267,-6.642 3.648,-4.501 2.354,-2.817 1.427,-1.706 0.51,-0.589 0,0 0,0" /></g><g
           transform="translate(1553.6006,848.123)"
           id="g94"><path
             id="path96"
             style="fill:#600b32;fill-opacity:1;fill-rule:nonzero;stroke:none"
             d="m 0,0 c 0,0 0.461,0.017 1.32,-0.023 0.858,-0.051 2.126,-0.112 3.727,-0.329 3.194,-0.427 7.778,-1.301 13.031,-3.542 2.617,-1.129 5.387,-2.65 8.092,-4.739 2.658,-2.123 5.311,-4.859 7.138,-8.411 0.489,-0.865 0.866,-1.803 1.247,-2.747 0.178,-0.476 0.311,-0.972 0.468,-1.461 0.158,-0.488 0.297,-0.984 0.389,-1.492 0.105,-0.504 0.209,-1.012 0.316,-1.521 l 0.181,-1.544 c 0.107,-0.858 0.174,-1.751 0.264,-2.632 0.129,-0.78 0.22,-1.467 0.376,-2.272 0.18,-0.81 0.308,-1.615 0.514,-2.437 0.367,-1.639 0.805,-3.291 1.309,-4.941 0.946,-3.317 2.104,-6.624 3.267,-9.888 0.605,-1.628 1.206,-3.247 1.799,-4.842 0.619,-1.598 1.231,-3.173 1.833,-4.726 2.453,-6.202 4.828,-12.008 6.855,-17.014 2.024,-5.004 3.694,-9.214 4.831,-12.187 0.58,-1.481 0.996,-2.67 1.305,-3.469 0.294,-0.806 0.451,-1.236 0.451,-1.236 0,0 -0.313,0.34 -0.862,0.998 -0.542,0.662 -1.364,1.625 -2.339,2.889 -1.967,2.521 -4.667,6.203 -7.636,10.795 -2.977,4.588 -6.215,10.094 -9.299,16.231 -0.782,1.53 -1.523,3.112 -2.267,4.724 -0.743,1.611 -1.469,3.253 -2.149,4.942 -1.398,3.358 -2.645,6.858 -3.724,10.466 -0.523,1.805 -0.986,3.648 -1.38,5.521 -0.224,0.922 -0.355,1.894 -0.514,2.84 -0.147,0.953 -0.252,2.042 -0.356,3.02 -0.049,0.888 -0.1,1.774 -0.148,2.655 l -0.046,1.077 -0.148,1.055 c -0.217,1.4 -0.589,2.754 -1.133,4.043 -1.038,2.596 -2.753,4.911 -4.668,6.937 -1.954,2.004 -4.109,3.735 -6.246,5.176 -2.137,1.452 -4.233,2.658 -6.136,3.67 C 7.756,-3.402 6.034,-2.592 4.599,-1.939 3.159,-1.302 2.014,-0.795 1.22,-0.486 0.425,-0.168 0,0 0,0" /></g><g
           transform="translate(1226.1836,1293.1084)"
           id="g98"><path
             id="path100"
             style="fill:#600b32;fill-opacity:1;fill-rule:nonzero;stroke:none"
             d="m 0,0 c 0,0 -0.507,-0.588 -1.425,-1.706 -0.927,-1.111 -2.221,-2.794 -3.839,-4.936 -1.61,-2.147 -3.465,-4.827 -5.456,-7.953 -1.98,-3.133 -4.074,-6.738 -6.012,-10.793 -1.943,-4.045 -3.667,-8.575 -4.834,-13.427 -0.498,-2.436 -1.012,-4.936 -1.103,-7.494 l -0.067,-0.958 0.005,-0.96 c 0.01,-0.639 -0.024,-1.284 0.005,-1.928 0.107,-1.281 0.144,-2.578 0.396,-3.852 0.145,-1.294 0.526,-2.545 0.814,-3.82 0.169,-0.631 0.411,-1.244 0.609,-1.87 l 0.311,-0.938 c 0.119,-0.306 0.266,-0.606 0.397,-0.911 0.266,-0.603 0.533,-1.212 0.8,-1.823 0.326,-0.583 0.651,-1.169 0.979,-1.755 0.729,-1.318 1.462,-2.642 2.198,-3.969 0.708,-1.449 1.488,-2.986 2.125,-4.451 0.611,-1.472 1.29,-2.936 1.806,-4.437 0.549,-1.493 1.118,-2.985 1.591,-4.495 0.504,-1.505 0.999,-3.012 1.429,-4.529 1.762,-6.069 3.191,-12.18 4.333,-18.222 0.593,-3.019 1.095,-6.021 1.555,-8.992 0.221,-1.485 0.442,-2.964 0.659,-4.428 0.193,-1.467 0.382,-2.925 0.572,-4.37 0.72,-5.783 1.253,-11.383 1.662,-16.698 0.404,-5.313 0.662,-10.342 0.828,-14.984 0.159,-4.643 0.232,-8.9 0.229,-12.673 0.009,-3.773 -0.075,-7.063 -0.149,-9.77 -0.061,-2.709 -0.201,-4.836 -0.269,-6.285 C 0.052,-184.876 0,-185.651 0,-185.651 c 0,0 -1.773,12.208 -4.435,30.517 -1.342,9.122 -2.971,19.738 -4.968,31.02 -0.52,2.814 -1.033,5.678 -1.597,8.563 -0.58,2.883 -1.164,5.799 -1.795,8.72 -1.291,5.839 -2.686,11.734 -4.402,17.488 -0.4,1.449 -0.856,2.871 -1.317,4.291 -0.435,1.432 -0.952,2.816 -1.452,4.206 -0.477,1.407 -1.069,2.732 -1.589,4.097 -0.549,1.348 -1.124,2.54 -1.704,3.836 -0.698,1.343 -1.428,2.678 -2.09,4.01 -0.372,0.743 -0.743,1.484 -1.113,2.223 -0.305,0.771 -0.609,1.539 -0.914,2.306 -0.145,0.386 -0.306,0.764 -0.439,1.151 l -0.349,1.182 c -0.22,0.788 -0.479,1.565 -0.657,2.356 -0.314,1.596 -0.654,3.174 -0.762,4.765 -0.21,1.582 -0.185,3.155 -0.215,4.708 0.011,0.774 0.078,1.539 0.123,2.304 l 0.08,1.137 0.155,1.121 c 0.108,0.744 0.216,1.48 0.323,2.215 0.154,0.721 0.305,1.438 0.455,2.15 0.137,0.717 0.332,1.409 0.527,2.096 0.198,0.685 0.38,1.37 0.596,2.038 1.754,5.332 4.107,10.014 6.624,14.055 5.069,8.082 10.491,13.784 14.426,17.538 1.959,1.896 3.614,3.255 4.73,4.186 C -0.632,-0.45 0,0 0,0" /></g></g></g></g></svg>
